<?xml version="1.0" standalone="no"?>
<!DOCTYPE svg PUBLIC "-//W3C//DTD SVG 20010904//EN"
 "http://www.w3.org/TR/2001/REC-SVG-20010904/DTD/svg10.dtd">
<svg version="1.0" xmlns="http://www.w3.org/2000/svg"
 width="300.000000pt" height="300.000000pt" viewBox="0 0 300.000000 300.000000"
 preserveAspectRatio="xMidYMid meet">
<metadata>
Created by potrace 1.14, written by Peter Selinger 2001-2017
</metadata>
<g transform="translate(0.000000,300.000000) scale(0.100000,-0.100000)"
fill="#000000" stroke="none">
<path d="M706 2065 c-9 -9 -16 -24 -16 -34 0 -31 -49 -204 -80 -286 -73 -189
-208 -376 -301 -417 -40 -18 -52 -43 -37 -76 l13 -27 203 -3 202 -2 0 -135 0
-135 -66 0 c-70 0 -93 -13 -94 -52 0 -37 31 -44 209 -43 175 1 192 4 197 42 6
35 -25 53 -91 53 l-62 0 1 133 1 132 660 0 660 0 1 -120 c0 -66 -2 -126 -4
-132 -3 -9 -26 -13 -68 -13 -56 0 -65 -3 -79 -24 -13 -19 -14 -29 -5 -45 13
-24 1 -23 205 -25 169 -2 195 4 195 45 0 31 -26 45 -86 48 -32 1 -61 6 -64 11
-3 4 -5 64 -5 132 l1 123 213 5 c207 5 214 6 228 27 14 21 13 25 -17 53 -18
16 -38 30 -45 30 -22 0 -139 119 -182 185 -22 33 -54 92 -72 130 -18 39 -37
77 -41 87 -10 17 -58 176 -67 218 -3 14 -6 30 -7 35 -2 6 -6 27 -11 48 -5 28
-13 39 -32 43 -45 12 -68 -9 -87 -75 -80 -286 -255 -534 -446 -631 -162 -83
-287 -72 -445 36 -64 44 -83 61 -153 138 -54 60 -166 247 -177 296 -1 3 -9 23
-18 44 -10 22 -27 72 -39 110 -11 39 -21 72 -22 73 -1 1 -13 4 -27 8 -18 4
-31 1 -43 -10z m1398 -507 c-1 -128 -2 -236 -3 -240 -2 -14 -91 -9 -92 5 -1 6
-3 73 -4 147 -1 117 1 139 18 168 10 18 32 59 48 92 16 33 30 60 31 60 2 0 2
-105 2 -232z m-1286 145 c17 -32 36 -69 43 -83 10 -19 14 -63 13 -155 -1 -72
-2 -136 -3 -142 -1 -8 -17 -13 -44 -13 l-43 0 0 225 c0 124 1 225 2 225 2 0
16 -26 32 -57z m-131 -390 c-3 -2 -56 -2 -120 -1 l-115 3 45 50 c58 66 112
148 154 238 l34 73 3 -180 c1 -98 1 -181 -1 -183z m1565 259 c51 -96 86 -148
142 -209 l44 -48 -111 -3 c-61 -1 -116 -1 -121 1 -7 3 -11 64 -10 178 2 183 3
206 11 176 3 -10 23 -53 45 -95z m-352 -187 l0 -75 -87 0 -88 1 40 32 c22 17
60 51 85 74 25 23 46 43 48 43 1 0 2 -34 2 -75z m-870 27 c21 -22 55 -50 75
-63 19 -13 35 -27 35 -31 0 -5 -36 -8 -80 -8 l-80 0 -1 40 c-2 89 -2 100 6
100 3 0 23 -17 45 -38z"/>
</g>
</svg>
